# xmcd CD database file
#
# Track frame offsets:
#	150
#	14225
#	27145
#	45513
#	62252
#	88963
#	103132
#	117768
#	146896
#	159354
#	177884
#	192831
#	205131
#	220080
#	238345
#	255527
#	277996
#	289207
#	313572
#
# Disc length: 4327 seconds
#
# Revision: 0
# Processed by: cddbd v1.5.1PL0 Copyright (c) Steve Scherf et al.
# Submitted via: CDex 1.50
#
DISCID=1510e513
DTITLE=Stills, Stephen - Stephen Stills/Stephen Stills 2
DYEAR=1971
DGENRE=Country Rock
TTITLE0=Love The One You're With
TTITLE1=Do For Others
TTITLE2=Church (Part Of Someone)
TTITLE3=Old Times, Good Times
TTITLE4=Go Back Home
TTITLE5=Sit Yourself Down
TTITLE6=To A Flame
TTITLE7=Black Queen
TTITLE8=Cherokee
TTITLE9=We Are Not Helpless
TTITLE10=Change Partners
TTITLE11=Nothin' To Do But Today
TTITLE12=Fishes and Scorpions
TTITLE13=Sugar Babe
TTITLE14=Know You've Got To Run
TTITLE15=Open Secret
TTITLE16=Marianne
TTITLE17=Bluebird Revisited
TTITLE18=Relaxing Town
EXTD=YEAR: 1971
EXTT0=
EXTT1=
EXTT2=
EXTT3=
EXTT4=
EXTT5=
EXTT6=
EXTT7=
EXTT8=
EXTT9=
EXTT10=
EXTT11=
EXTT12=
EXTT13=
EXTT14=
EXTT15=
EXTT16=
EXTT17=
EXTT18=
PLAYORDER=
